<svg id="_Layer_" data-name="&lt;Layer&gt;" xmlns="http://www.w3.org/2000/svg" viewBox="0 0 2396.19 1176.63"><defs><style>.cls-1{fill:#2846a6;}.cls-2{fill:#552e5d;}.cls-3{fill:#ea5b0c;}.cls-4{fill:#ffda88;}.cls-5{fill:#603e6b;}.cls-6{fill:#ff681d;}.cls-7{fill:#ff9739;}.cls-8{fill:#ceb1d8;}.cls-9{fill:#fc7575;}.cls-10{fill:#f7931e;}.cls-11{fill:#fd5e5a;}.cls-12{fill:#4c969c;}.cls-13{fill:#0b638c;}.cls-14{fill:#fff;}.cls-15{fill:#1b2b80;}.cls-16{fill:#18287d;}.cls-17{fill:#f9b406;}.cls-18{fill:#653870;}.cls-19{fill:#111f59;}.cls-20{fill:#65c8d0;}.cls-21{fill:#4f80ff;}.cls-22{fill:#719dff;}.cls-23{fill:#95baf9;}.cls-24{fill:#381a3f;}.cls-25{fill:#172866;}.cls-26{fill:#fd9191;}.cls-27{fill:#dc56ac;}.cls-28{fill:#1d154f;}.cls-29{fill:#ed6464;}.cls-30{fill:#392780;}.cls-31{fill:#e67cbc;}</style></defs><title>fam-2</title><path class="cls-1" d="M2223.42,1025.14c-5.19-.75-11.73-.08-15.88,3.56-4.6,3.92-4.64,9.92-3.6,16.16.11-5.76.43-11.14,5-13.83,3.7-2.23,9.28-1.77,13.26-.39Z" transform="translate(-442.81 -312.39)"/><path class="cls-1" d="M2234.48,1042.49c-10.14-5.94-27.59-12.75-30.84-.6l.07,0c4-11.32,19.93-3.58,29.36,2.94Z" transform="translate(-442.81 -312.39)"/><path class="cls-2" d="M892.1,1229.84s13-38.89,18.7-47.89,31.84-5.57,32,5.63-19.48,7.42-19.48,7.42l-9.2,49Z" transform="translate(-442.81 -312.39)"/><path class="cls-2" d="M711,1330.63a98.74,98.74,0,0,1-33.48,14.84c-19.81,4.6-31,12.32-45.23,10.85s-39.21-.55-46.78,5.88c0,0,34.69-4,43.54.53s44.19-10.31,50.6-9.65,31-3.63,31-3.63Z" transform="translate(-442.81 -312.39)"/><path class="cls-2" d="M856,1120.57s13.6,1.27,19.54,8.26,4.69,23.51-11.06,18.83S856,1120.57,856,1120.57Z" transform="translate(-442.81 -312.39)"/><path class="cls-2" d="M728.25,1311.38c-3.66,15.16-5.23,46.33,2.88,58.82l8.1,12.49s-15.15,11.65-11.45,16,41.93,29.3,41.93,29.3l18-13a2.71,2.71,0,0,0-.64-4.65c-4.63-2-12.39-3.82-18.88,1.7l-18.38-16.33s19.49-7.13,24-17.76c3.39-8,4.7-20.48,8.81-30.39-17.73-13.12-38.7-22.07-53.21-38.56A9.91,9.91,0,0,0,728.25,1311.38Z" transform="translate(-442.81 -312.39)"/><path class="cls-3" d="M807.81,1144s36.32,49.24,25.07,66.66S702.67,1328.1,699,1343.25s-5.23,46.33,2.87,58.82l8.11,12.49s-15.15,11.65-11.45,16,41.92,29.3,41.92,29.3l18-13a2.7,2.7,0,0,0-.64-4.64c-4.63-2-12.38-3.82-18.88,1.69l-18.37-16.32s19.49-7.13,24-17.76,5.32-29.13,13.92-39,124.43-61.73,139.72-77.34,23.56-52.48,24.34-65.71-66.19-90.89-63.15-100.28,19.39-19.72,23.58-29.46c3-7-3.84-14.53-3.84-14.53s-1.58-10.71-6.65-13.73-10.25,5-10.25,5-21.53,18.3-29.22,17.5-15.67-1.35-23.85,10.84S798,1132.45,807.81,1144Z" transform="translate(-442.81 -312.39)"/><path class="cls-3" d="M699,1343.25c-3.66,15.16-5.23,46.33,2.87,58.82l8.11,12.49s-15.15,11.65-11.45,16,41.92,29.3,41.92,29.3l18-13a2.7,2.7,0,0,0-.64-4.64c-4.63-2-12.38-3.82-18.88,1.69l-18.37-16.32s19.49-7.13,24-17.76c3.39-8,4.7-20.47,8.81-30.39-17.72-13.12-38.7-22.07-53.21-38.56A10,10,0,0,0,699,1343.25Z" transform="translate(-442.81 -312.39)"/><polygon class="cls-4" points="385.66 875.75 438.3 848.3 443.19 855.67 389.25 882.13 385.66 875.75"/><path class="cls-5" d="M855.4,1217.71c-4-4.71-11.77-8.63-20.78-11.39a12.94,12.94,0,0,1-1.74,4.35c-8.87,13.72-84.64,78.76-118.14,113.11,9.78,7,22.5,13.89,31.78,10.52,17.22-6.26,21-18.35,41.86-16.19s40.82-12.7,42.35-38.61S867.28,1231.7,855.4,1217.71Z" transform="translate(-442.81 -312.39)"/><path class="cls-2" d="M878.26,1082.86c5.89,5.85,2.51,11-3.47,16.34-4.09,3.12-7.94,9.14-11.47,14.87-.52.87-1.86,0-1.34-.85C872,1096.65,887.65,1092.93,878.26,1082.86Z" transform="translate(-442.81 -312.39)"/><path class="cls-2" d="M805.94,1126.48s-5.22,6.53-7,13.83,31.31,24.18,32.62,23.07S805.94,1126.48,805.94,1126.48Z" transform="translate(-442.81 -312.39)"/><path class="cls-6" d="M852.15,1186.17s11.38-10.19.43-21.31S818,1152.87,813,1147s-7.08-20.55-7.08-20.55A28.29,28.29,0,0,0,797.5,1141c-1.78,8.83,1.58,12.65,1.33,16.92s-3.59,9.34,1.91,19.06S840.37,1191.47,852.15,1186.17Z" transform="translate(-442.81 -312.39)"/><path class="cls-7" d="M814.31,1146.62c-4.19-4-7.07-15.08-8.37-20.14.42,6.53,2.3,16.8,6.75,21.84,7.79,7.12,29.59,7,40.23,18.71,4.54,4.81,5.27,11.89-.77,19.14,6.35-5.15,8.33-13.61,2.58-20.62C844.3,1152.38,821.07,1152,814.31,1146.62Z" transform="translate(-442.81 -312.39)"/><path d="M831.1,1104.19c1.89,2.22,2.21,5,.73,6.32s-4.22.48-6.12-1.74-2.21-5.06-.73-6.32S829.21,1102,831.1,1104.19Z" transform="translate(-442.81 -312.39)"/><path class="cls-3" d="M890.87,1231.42s38.27-14.71,48.85-16,24.55,21,16,28.28-18.11-10.31-18.11-10.31l-43.69,24.07Z" transform="translate(-442.81 -312.39)"/><path class="cls-2" d="M872.34,1069c-5.07-3-10.55,6.16-11.28,6.76-.49.4.28,8.24,10.38,10.17,2.46.47,4.4-.43,6.4-1.65.18-.1,1.25-.62,1.26-.79C879.29,1080.12,876.39,1071.36,872.34,1069Z" transform="translate(-442.81 -312.39)"/><path class="cls-8" d="M1003.73,1458.91c.21,8-111.42,17.42-249.34,21s-249.89.11-250.1-7.88,111.42-17.41,249.34-21S1003.51,1450.92,1003.73,1458.91Z" transform="translate(-442.81 -312.39)"/><path class="cls-9" d="M756.81,508.3C776.1,470.93,770.3,405.54,761,390.79c-8.59-13.57-8.14-25.79-14.45-35.77-3.06-4.83-2.93-6.56-2.82-7s1.69-.72,4.33,0c4.68,1.27,6.27,16.63,10.63,17.81a2.14,2.14,0,0,0,2.62-1.76c1.57-5.8-7-45.69-3.6-46.48,2.56-.59,2.71,6.78,2.77,7,3.38,24.66,4.86,32.79,8.52,30.9a2.24,2.24,0,0,0,1.09-1.5c1.24-4.58-4.3-38-.05-41.52,1.08-.9,2.64,8.17,2.69,8.36.63,4-.11,30.93,3.3,32.94,6.38,3.76,1.85-34.68,7.61-33.13,3.3.9.32,12.43.06,18.17-.54,11.75-.5,14.61,1.17,15.67,3.18,2,5.87-5.49,8-10.42,1.69-3.86,4.76-10.85,6.42-12.19,2.17,4-4.27,18-6.1,22.18C789.74,362,790,359.9,786,386.2c-1.51,9.8-1.73,6.88,0,13.33,8.85,33.36,17.51,78.12,8.49,111.45-7.23,26.71-49.67,65.64-68.16,78.79-10.86-11.1-17.07-30.19-28.64-40.79C715.39,542.43,749.37,522.71,756.81,508.3Z" transform="translate(-442.81 -312.39)"/><polygon class="cls-10" points="258.35 215.63 296.81 284.74 212.47 339.13 149.59 284.74 258.35 215.63"/><path class="cls-11" d="M730.84,1081l20.62,52.48s38.95,130.61,54.22,197.45,22.15,82.83,22.15,82.83,2.72,12.85,18.29,15.74c6.31,1.17,13.93-1.66,21.19-2.71,7.72-1.12,15.18-.46,25.67.6,3.85.39,1.41-2.23-3.46,2.64,0,0-57.75,24.18-63.6,25.52-14.38,3.29-15.91-13.23-21.38-33.65-5.42-20.23-93.55-233.38-93.55-233.38L676.62,1113Z" transform="translate(-442.81 -312.39)"/><path class="cls-5" d="M809.9,1443.31h0s45.39-4.48,57.41-16.5c10.79-2.73,23-6.16,34.6-5,3.85.39-3.34,6.71-9.79,10.84,0,0-60.35,24.69-66.2,26C816.91,1460.75,812.94,1453.81,809.9,1443.31Z" transform="translate(-442.81 -312.39)"/><path class="cls-9" d="M656.56,1136.18v44.88L580.68,1409.3a23.43,23.43,0,0,0-.16,14.3c3.84,12.47,11.9,36.47,17.18,36.47,7.13,0,14.31,7.86,14.31,7.86l-32.53,2.32-32.05-48.13c-5.28-8.23-2.68-14.62,4.81-20.91l5.24-4.41c1.36-1.62,45.64-229,45.64-229l-16.62-62.11Z" transform="translate(-442.81 -312.39)"/><path class="cls-11" d="M2320,784.28s-29,6.06-42.41,6.06-9.73-4-6.27-4,25.53-4.27,25.53-4.27Z" transform="translate(-442.81 -312.39)"/><path class="cls-11" d="M2251.28,756.64c2.91,3.19,22.17,2.6,22.17,2.6s-14.81-2.7-18-6.19-.36-6,1.94-3.46,22,5.45,26.48,3.85,3.68-6.65,1.75-6.65-14,1.93-11.75-.53,9.44-6.52,16-5.19c3.52.72,9.61,3.67,14.48,6.25,1.26,0,2.54.08,3.82.17,8.89.63,35.19-10.65,66.1-28.32s99.71-39.38,117.5-50.59l40.73-22.79c11.15-6.24,25.72,13.33,21.54,26.28-7,21.66-22.69,36.76-51.31,41.23-45.78,7.15-94.3,16.58-107.47,24.42s-60.43,19.94-78.18,25.9a57.21,57.21,0,0,1-18.91,3c-3.06,0-11.39.77-19.26,0-11.47-1.11-23.19-4.07-26.72-5.6C2246.2,758.44,2248.38,753.44,2251.28,756.64Z" transform="translate(-442.81 -312.39)"/><path class="cls-11" d="M2287.91,760.91s-9.65,1-19.81,1.7c-9.72.71-20,1.17-19.72,3.39s12.84.63,24.84,1a140.5,140.5,0,0,0,25.07-1.73Z" transform="translate(-442.81 -312.39)"/><ellipse class="cls-8" cx="1982.09" cy="1168.46" rx="332.85" ry="8.16"/><path class="cls-11" d="M2480.88,878.8l-111.77,252.49a34.62,34.62,0,0,0-2,22l68.3,272.58s-8.8,25.16-14.66,37.73-16.44,9-12.67,12.74,23.58,1.93,28.61,1.93,3.57-26.46,13.63-26.46,11.86-18.53,7.11-23.42a25.84,25.84,0,0,1-6.69-11.56c-4.19-15.08-13.19-234.26-17.59-249.76-5-17.52-10.49-21.78-10.49-27.65s123.42-173.26,123.42-205.11S2510.21,866.23,2480.88,878.8Z" transform="translate(-442.81 -312.39)"/><polygon class="cls-12" points="1954.44 698.66 2036.38 758.67 2119.47 634.14 2059.46 546.72 2021.57 546.72 1954.44 698.66"/><path class="cls-9" d="M2464.38,859.11c-3.45-55.51,1.75-111.09,6.16-131.44,4-18.3,8.39-39.68,20.81-53.36,10.34-11.38,31.48-22.21,31.48-22.21s60.13-18.32,77.89-6.59c19.29,12.73-12.62,91.94-12.62,91.94-3.13,9-6.14,16.74-13.77,26.12-19.45,23.88-49.87,60-49.87,75.29,0,.6.16,1.29.23,1.94l-60.25,19C2464.42,859.58,2464.39,859.35,2464.38,859.11Z" transform="translate(-442.81 -312.39)"/><path class="cls-9" d="M2524.69,840.8c2.38,22.07,44.43,68,50,79.35,5.72,11.73-6.37,202.54-6.37,202.54s5-14.34,14.28-21.48c5.65-4.32,143.84-74.62,143.84-74.62a136.74,136.74,0,0,1,11.17-13c5.87-5.87,16.21-2.66,16.21,1.81s-2.24,25.7,2.23,34.64-8.94,38.56-15.08,38.56-.28-39.32-5.59-44.64S2563.85,1183,2548.76,1186.38s-48.6-125.71-67-222.37c-7.2-37.72-5.27-69.37-17.28-104.19Z" transform="translate(-442.81 -312.39)"/><path class="cls-13" d="M2741,1088.61c-3.22,0-3.15-10.8-3.11-21.84a4,4,0,0,0,2,.54c4.43,0,7.24-11,7.24-24,0-9.15-7.2-21.32-11.46-27.7.63-.67,1.28-1.34,1.93-2,5.87-5.87,16.21-2.66,16.21,1.81s-2.24,25.7,2.23,34.64S2747.11,1088.61,2741,1088.61Z" transform="translate(-442.81 -312.39)"/><path class="cls-13" d="M2457.41,1428.41l14.06,14.32s-11.7,8.88-15.37,12.55-7.07,20-10.59,23.47-41.33,2.28-41.33-1.18,15.36-10.6,15.36-10.6,4.11,2.59,12.12.65,7.79-11.69,11.25-18S2457.41,1428.41,2457.41,1428.41Z" transform="translate(-442.81 -312.39)"/><path class="cls-14" d="M2546.24,581.87c-.21,1.19-7.42,2.54-12.7-.22l.12,4S2542.56,586.05,2546.24,581.87Z" transform="translate(-442.81 -312.39)"/><path class="cls-15" d="M2818.76,994.14c-24.79-30-59.57-28-59.91-28a.87.87,0,0,0,.11,1.74c.34,0,34.25-1.94,58.46,27.33a.87.87,0,1,0,1.34-1.11Z" transform="translate(-442.81 -312.39)"/><path class="cls-15" d="M2838.82,978.33c-31.4-32.83-86.89-27.31-87.44-27.25-1.19.13-1,1.52.17,1.4.54-.05,55.08-5.46,85.89,26.74a1,1,0,0,0,1.22.1A.63.63,0,0,0,2838.82,978.33Z" transform="translate(-442.81 -312.39)"/><path class="cls-15" d="M2652.43,1164.55a.87.87,0,0,0-1.21-1.25c-.88.86-87.8,84.59-138.69,57.81a.87.87,0,0,0-.8,1.54C2553,1244.41,2619.37,1196.74,2652.43,1164.55Z" transform="translate(-442.81 -312.39)"/><path class="cls-16" d="M2614.45,513.76c1.31-.1,2.14-9.52,10.18-18.91s21.52-12.63,32.44-3.28.7,8.92,8.51,20.14,14-.15,17,11.17-6.54,11.06-1.79,18.34,12.63-4.15,15.25,3.4,3.3,19.58-8.8,16.93-16.36,4.31-19,12.31-19.59,12.38-20.5.62c0,0-1.72-1.09-4.55,4.43s-10.34,2.89-10.75,2.54-1.79-1.15-6.48-16.9-25.06-12.73-16.63-30.11S2614.45,513.76,2614.45,513.76Z" transform="translate(-442.81 -312.39)"/><path class="cls-17" d="M2619.08,512.42s-12.19-2.67-11.62,4.63,7.49,11.05,11.15,14.71,5.53,5.83,7.06,7.14.63-7.82.28-12.28S2619.08,512.42,2619.08,512.42Z" transform="translate(-442.81 -312.39)"/><path class="cls-16" d="M2615.94,512s1.6-1.66-2.09-12.39-18.54-10.56-18.54-10.56l3.09-7.2s14.06-2.73,17.6,11.27S2615.94,512,2615.94,512Z" transform="translate(-442.81 -312.39)"/><path class="cls-9" d="M2560.25,615.36s-6,26.61-18.09,35.92c0,0,.34,5,21.89,8.43s29.27-7.35,29.27-7.35,5.75-37,11-50.73a93.18,93.18,0,0,0,5.38-23.77Z" transform="translate(-442.81 -312.39)"/><path class="cls-11" d="M2609.75,577.86l-49.5,37.5s-.53,2.14-1.4,5.28C2597.74,637.47,2609.75,577.86,2609.75,577.86Z" transform="translate(-442.81 -312.39)"/><path class="cls-9" d="M2567.37,523.44c-1.47.9-16.4,14.73-18.16,23.44s5.35,19,3.29,21.36-7.21,9.54-12.89,12.63c0,0,.1,2.54,5.36,4.58,0,0,0,3.37-1.45,5s-1.16,2.56-.66,3.21a15.25,15.25,0,0,0,2,1.68l1.69,3.34s-.69.36-.53,2.38,3.17,2.72,3.17,2.72,1.5.9,1.77,4.35-.37,8.39,11,9.44c8.55.78,38.05-10.52,44.6-23.16,5.43-10.47,6.17-39.92,2.7-45.18C2604.39,541.86,2576.52,517.83,2567.37,523.44Z" transform="translate(-442.81 -312.39)"/><path class="cls-14" d="M2553.08,594.92a12.73,12.73,0,0,1-6.57,3.77l-1.69-3.34S2550.2,596.53,2553.08,594.92Z" transform="translate(-442.81 -312.39)"/><path class="cls-1" d="M2567.26,510.29s-14.75.43-25.58,9.33-19.84,21.64-11.25,35,16.94,10.51,16.94,10.51-8.48-8-5.08-10.21,8,2.89,8,2.89,0-7.29,3.15-7.53,13,9.39,13,9.39,1.42-14.49,6-10.56,6.8,8.47,14.27,14.86,12.65,17.82,6.48,25-10.76,4.61-10.76,4.61,2.74,6.31,8.73,4.62,7.86-7.65,7.86-7.65l-2.78,8.79s7-1,10.27-9.58-7.39-29.6-3-32.49,6.56,26.36,1.93,41.41c0,0,6.37-14.72,14.57-15.36s18.1.72,18.91-19-26.9-33.8-31.42-47.32S2575.64,493.42,2567.26,510.29Z" transform="translate(-442.81 -312.39)"/><path class="cls-9" d="M2601.87,565.36s-1.82-13.33,6.42-10.57,7.12,22.49.21,20.1C2602.56,572.84,2601.87,565.36,2601.87,565.36Z" transform="translate(-442.81 -312.39)"/><path class="cls-11" d="M2602.87,564.26s1.72-5.44,4.67-4.18,4.7,11.33,1.58,12.32S2602.61,568.31,2602.87,564.26Z" transform="translate(-442.81 -312.39)"/><path class="cls-18" d="M2624.36,604a.57.57,0,0,1-.18-.58.58.58,0,0,1,.7-.42c37.28,9.54,63-19.82,63.22-20.12a.57.57,0,0,1,.81-.06h0a.57.57,0,0,1,.06.81c-.26.3-26.39,30.21-64.38,20.49A.46.46,0,0,1,2624.36,604Z" transform="translate(-442.81 -312.39)"/><path class="cls-18" d="M2148.54,704.14a.58.58,0,0,1,1-.42c21.9,31.66,60.54,26.32,60.93,26.26a.58.58,0,0,1,.65.48h0a.58.58,0,0,1-.48.66c-.4.06-39.74,5.51-62-26.74A.59.59,0,0,1,2148.54,704.14Z" transform="translate(-442.81 -312.39)"/><path class="cls-1" d="M2554.78,570.57l-.86-3.17a3.29,3.29,0,0,0-.23,3.49A4,4,0,0,1,2554.78,570.57Z" transform="translate(-442.81 -312.39)"/><path class="cls-19" d="M2560.22,573.65c-3.46-6.18-12.14-7.81-12.29-11.36.15,1.43,4.77,3.25,7,4.6C2557.26,568.53,2559.55,570.76,2560.22,573.65Z" transform="translate(-442.81 -312.39)"/><path class="cls-20" d="M2525.27,843.4l-60.89,15.71,15.38,121.76,15.3,100.29s112.6-26,107.8-26-6.94-105.38-17.79-135.05C2575.23,893.24,2525.27,843.4,2525.27,843.4Z" transform="translate(-442.81 -312.39)"/><path class="cls-17" d="M2522.83,652.1a68.94,68.94,0,0,1,24.47-6.16c-7.2,8.83-28.63,34.1-7.41,37.94,21.39,3.87,51.3-28.39,60.39-38.89.15.17,11,7.54,14.65,10.54,32.89,26.83-12.33,79.85-12.33,79.85-12.76,21.83-73.64,94-73.64,102.71,0,.6,4.66,8,4.73,8.66l-69.25,13.07c0-.24-.05-.47-.06-.71-2.71-43.6-2.45-152.4,27-184.8C2501.69,662.93,2522.83,652.1,2522.83,652.1Z" transform="translate(-442.81 -312.39)"/><path class="cls-9" d="M504.25,471.5c10.88-40.63,59.18-85.09,76-89.72,15.48-4.27,23.37-13.6,34.76-16.73,5.51-1.52,6.58-2.89,6.77-3.27s-.76-1.67-3.19-2.92c-4.31-2.21-15.83,8.08-19.85,6a2.14,2.14,0,0,1-.75-3.07c2.74-5.34,35.94-29.06,34-32-1.5-2.15-6.57,3.21-6.75,3.31-19.09,16-25.66,21-27.09,17.12a2.22,2.22,0,0,1,.19-1.84c2.17-4.23,28.74-25.19,28-30.68-.19-1.39-7.44,4.27-7.61,4.37-3.16,2.53-20.74,22.95-24.61,22.14-7.25-1.51,22-26.89,16.66-29.62-3-1.56-8.6,9-12.26,13.39-7.52,9.06-9.47,11.15-11.41,10.82-3.73-.64-.65-8,1.06-13.13,1.35-4,3.78-11.23,3.46-13.34-4.29,1.49-9,16.2-10.43,20.51-2.77,8.21-1.57,6.5-16.27,28.68-5.47,8.26-3.35,6.25-9,9.87-29,18.72-65.52,46-81.28,76.72-12.63,24.62-7,66.45-2.18,88.63C488,535.89,499,528,513.09,520.61,504.37,503.81,500.05,487.16,504.25,471.5Z" transform="translate(-442.81 -312.39)"/><path class="cls-21" d="M690.88,874.38,701,889.73l70.92,218s-71.11,32.42-93.73,28.09L622.13,944.55Z" transform="translate(-442.81 -312.39)"/><path class="cls-22" d="M541.1,916.3c1.15,5.55,36.89,228.53,36.89,228.53s58,23.05,88.56,6.62L654.33,926.21Z" transform="translate(-442.81 -312.39)"/><polygon class="cls-23" points="203.29 613.81 215.51 839.05 195.76 615.38 203.29 613.81"/><path class="cls-17" d="M602.6,590.43c-13.08.47-44.26-1.08-54.52,5.08-57.65,34.62-39.9,143.29-39.9,143.29l21.64,215.62S689.93,967,740,897.34C740,897.34,662.72,588.29,602.6,590.43Z" transform="translate(-442.81 -312.39)"/><path class="cls-15" d="M782.59,747.5a.85.85,0,0,1,.21-1.68c27.53,3.39,49.78-3.07,66.15-19.2C890.34,685.86,881.14,596,881,595.05a.85.85,0,0,1,1.7-.18c.09.91,9.38,91.62-32.59,133C832,745.7,808.26,750.67,782.59,747.5Z" transform="translate(-442.81 -312.39)"/><path class="cls-15" d="M442.91,465.09c-1.71-41.94,19.88-68.84,20.13-69.15a.77.77,0,0,1,1.2,1c-.29.35-28.47,35.52-17.25,88.13a.77.77,0,0,1-1.51.32A119.47,119.47,0,0,1,442.91,465.09Z" transform="translate(-442.81 -312.39)"/><path class="cls-14" d="M603.12,602.31c10.5,4.22,21.19,14.56,28.15,23.47,21.53,28.3,26.9,51.86,35.13,80,9.25,40,20.6,127.22,12,169.53,6-46.47-7.9-148.85-21.05-190.92l-2.76-8.73c-10.4-29.31-19.72-41.83-19.41-41.32C629,623.68,614.47,607.21,603.12,602.31Z" transform="translate(-442.81 -312.39)"/><path class="cls-24" d="M557.68,556.75c-1.23-.86-16.13-41.41-16.13-41.41s-9.9-30.39-3.18-35.23,22.76-21.9,36.62-21.71,23.1,4.84,24.33,5.7,10,17,10,17-4.11-5.47-6.53,14.18S557.68,556.75,557.68,556.75Z" transform="translate(-442.81 -312.39)"/><path class="cls-9" d="M592.66,556.21c-1.71,5,19,36.47,7.88,45.3-3.56,2.83-52.12,27-52.46-6s3.3-71.65,3.3-71.65Z" transform="translate(-442.81 -312.39)"/><path class="cls-11" d="M549.59,547.48c6.29,22.73,34.07,48.43,53.27,38.69-2.91-12.15-11.32-26.66-10.2-30l-41.28-32.35C551.35,524.28,550.47,533.38,549.59,547.48Z" transform="translate(-442.81 -312.39)"/><path class="cls-9" d="M550.22,493.6c-5.26,13-5.86,37.09,6,55.77s28.51,28.68,40.64,19.91,16.31-66.33,7.84-81.49S558.25,473.79,550.22,493.6Z" transform="translate(-442.81 -312.39)"/><path class="cls-18" d="M549.5,549s-2.45-19-9.34-23.82-10-7.76-11.16-14.47-24.31-12-20.37-22.83,22.16-15.29,31.65-34,19.6-28.9,41-21.18,24.25,21.5,24.25,21.5,9.52-1.37,15.17,10.67,1.39,18.62-2.42,24c0,0,1-15.6-4.15-14.7s-.21,18.28-.21,18.28a144.4,144.4,0,0,1-15.74-17.35c-8.1-10.49-6.23,1.5-4,14.5s-15.85.17-23.84-9.46-19.73-1.32-24.15,11.76S559.85,526.45,549.5,549Z" transform="translate(-442.81 -312.39)"/><path class="cls-9" d="M554,514.44s-7.41-13.77-11.44-8.05-1,23.37,7.37,23.84S554,514.44,554,514.44Z" transform="translate(-442.81 -312.39)"/><path class="cls-11" d="M549.65,515.27s.39-7.81-3.72-5.37-.17,15.15,3.59,15S549.65,515.27,549.65,515.27Z" transform="translate(-442.81 -312.39)"/><path class="cls-25" d="M592.74,513.21a51.24,51.24,0,0,1,2.89,11.25c1.1,8.33-.23,11.81-.28,12.34-.92-.22-3.37-.68-6.61-1.69,2.09,0,4.17.14,6.24.34l-.71.51C594.72,528.47,593.41,520.9,592.74,513.21Z" transform="translate(-442.81 -312.39)"/><path class="cls-1" d="M582.45,514.84c.41,2.36-.6,4.5-2.26,4.79s-3.33-1.39-3.74-3.75.6-4.5,2.25-4.79S582,512.48,582.45,514.84Z" transform="translate(-442.81 -312.39)"/><path class="cls-1" d="M605.23,512.3c.41,2.36-.6,4.5-2.26,4.79s-3.33-1.39-3.74-3.75.6-4.5,2.25-4.79S604.81,509.94,605.23,512.3Z" transform="translate(-442.81 -312.39)"/><path class="cls-25" d="M569.6,508.43s3.58-6.26,9.41-7.27,4,4,2.65,4.25S569.39,507.23,569.6,508.43Z" transform="translate(-442.81 -312.39)"/><path class="cls-25" d="M597.48,498.88s6.86,2.37,8.13,5.71c0,0-7.29-.89-8.58-2.71A2,2,0,0,1,597.48,498.88Z" transform="translate(-442.81 -312.39)"/><path class="cls-9" d="M2264.18,775.19c3.46,3.47,26.39,2.82,26.39,2.82s-17.63-2.92-21.42-6.71-.43-6.49,2.31-3.75,26.26,5.91,31.53,4.18,4.39-7.21,2.08-7.21-16.66,2.09-14-.58,11.25-7.07,19-5.62c4.2.77,11.45,4,17.24,6.77,1.51,0,3,.08,4.55.18,10.59.7,41.91-11.54,78.71-30.69s118.75-42.69,139.92-54.84L2599,655c13.28-6.76,30.64,14.45,25.66,28.49-8.33,23.48-27,39.84-61.11,44.68-54.51,7.75-112.29,18-128,26.48s-72,21.62-93.1,28.07A74.37,74.37,0,0,1,2320,786c-3.64,0-13.56.84-22.93,0-13.66-1.2-27.62-4.41-31.82-6.07C2258.12,777.14,2260.72,771.73,2264.18,775.19Z" transform="translate(-442.81 -312.39)"/><path class="cls-26" d="M2410.62,734.58c17.81-8.28,36.39-14.6,54.87-21.16,99.49-34.55,70.16-25.53,109.05-44.41l25.95-13.66c8.55-3.77,18.42,4.63,22.76,13.13a29.64,29.64,0,0,0-9-11.62c-16.09-12.57-25.17,8.31-94.4,33.9C2481,705.28,2440.94,718,2410.62,734.58Z" transform="translate(-442.81 -312.39)"/><path class="cls-27" d="M2161.4,626.21a66.32,66.32,0,1,0,66.32-66.32A66.32,66.32,0,0,0,2161.4,626.21Z" transform="translate(-442.81 -312.39)"/><path class="cls-4" d="M517.26,515.36s24.82,67,26.92,90.38-12.67,91.13-26.92,91.13S453.62,555.19,453.62,528Z" transform="translate(-442.81 -312.39)"/><path class="cls-14" d="M596.07,546.76,594,558.44s-11.31-7.52-18.07-14.28Z" transform="translate(-442.81 -312.39)"/><path class="cls-11" d="M2183.79,1287.94l-20.94,87.11,6.59,81.48a91,91,0,0,1-18.2,6.15c-9.68,2-5.81,9.9,17.88,6,7.58-1.23,14.67,0,17.31-.59,2.83-.62.47-8.16.76-11.33l6.22-66.44,40.42-122.49Z" transform="translate(-442.81 -312.39)"/><polygon class="cls-28" points="1726.28 953.08 1710.51 1015.01 1767.84 1025.74 1793.35 953.08 1726.28 953.08"/><path class="cls-9" d="M2235.39,1272.54c45.91,25.64,6.69,84.48,8,92.21,0,0,55.26,72.8,56.18,78.11a119,119,0,0,0-14.52,16.28c-8,11-15.7,24.44-21,20.11-6.24-5.11,9.94-24.11,9.94-39.66,0-2.71-58.27-52.86-63.06-57.21-5.73-5.18-6.95-71.24-6.95-71.24Z" transform="translate(-442.81 -312.39)"/><path class="cls-29" d="M2212.62,1374.24c1.55-3.58,13.15-8.88,14.37-.19s-2.27,18.92-7.66,15S2211,1378,2212.62,1374.24Z" transform="translate(-442.81 -312.39)"/><polygon class="cls-30" points="1809.95 945.48 1829.43 1018.9 1761.22 1026.33 1754.97 992.04 1724.52 950.69 1809.95 945.48"/><path class="cls-9" d="M2124.85,1153.63c-17.06-6-37-23.88-38.21-32.41-1.11-7.84-4.77-11.93-5.59-17.71-.39-2.79-.93-3.34-1.09-3.45s-.76.37-1.41,1.58c-1.17,2.14,2.74,8.07,1.65,10.07a.9.9,0,0,1-1.36.33c-2.18-1.45-10.87-18.45-12.22-17.48-1,.73,1.08,3.35,1.11,3.44,6,9.81,7.86,13.17,6.12,13.85a.83.83,0,0,1-.79-.13c-1.72-1.13-9.53-14.77-11.94-14.46-.61.08,1.49,3.8,1.53,3.89.94,1.62,8.94,10.72,8.41,12.66-1,3.63-10.6-11.39-12-8.75-.82,1.51,3.48,4.44,5.21,6.33,3.57,3.9,4.38,4.91,4.14,5.88-.45,1.87-3.5.23-5.63-.69-1.67-.73-4.68-2-5.61-1.9.44,2.16,6.59,4.7,8.38,5.49,3.42,1.5,2.74.88,11.64,8.55,3.32,2.85,2.55,1.76,3.85,4.63,6.72,14.82,16.79,33.55,29.33,41.86,10.06,6.66,43.89,6.73,53.72,4.57.34-7.82,8.49-28.29,9.22-36.19C2165.59,1147.78,2131.44,1155.94,2124.85,1153.63Z" transform="translate(-442.81 -312.39)"/><path class="cls-10" d="M2177.33,1172.61s-18.07,15.81-40.83,14.88l-6.59-35.83s33.82-15.14,49-10.53S2177.33,1172.61,2177.33,1172.61Z" transform="translate(-442.81 -312.39)"/><path class="cls-17" d="M2164.86,1136.87c20.07-12,56.23-7.26,64.08,37.94,1.92,11,35.42,60,35.69,89-26.84,2.6-80.27,4.94-107,7.88C2182.12,1221.39,2126.79,1159.54,2164.86,1136.87Z" transform="translate(-442.81 -312.39)"/><path class="cls-9" d="M2330.2,1086.23a.47.47,0,0,0-.87-.36c-.72,1.32-1.58,3.3-2.19,4.69-2,4.57-3.52,5.82-4.58,5.74-.44-.9.26-2.73,3.09-9,1.31-2.89,3.1-6.87,3.06-7.62-.83-3.25-3.6,3.29-4.72,6.3s-2.07,6.51-3.61,6.4c-.5,0,.35-4.28,2.06-9.37,6.22-18.51,1.12-13.31-1.36-4-2.25,8.46-3.16,12.32-3.85,12.27-.48-.7-.14-2.62,1.16-8.62.75-3.45,1.34-9.28,1-10.16-1-1.41-1.84,1.73-2.08,3.5,0,.18-2.71,18.28-5.6,18.71s-2-4.68-1.37-7.72-1.38-5.52-2.23-4.58c-1.05,1.18.85,5.18-.46,10.14a125.27,125.27,0,0,0-3,14.49,79.36,79.36,0,0,1-6.22,20.19c-4,8.77-11.27,19.77-22.92,22.34a27.15,27.15,0,0,1-7.79.52c-4.35-.29-56.52-8.83-61-10.55-2.2,14.69,0,23.27,8.09,34,4.59,6.14,15.1,9.37,22.25,8.33,18-2.63,49.78-7.72,52.06-9.1,11.08-6.73,22.62-41.71,23.68-57.92,3.73-4.27,9.7-11.7,12.67-16.79A39.31,39.31,0,0,0,2330.2,1086.23Z" transform="translate(-442.81 -312.39)"/><path class="cls-4" d="M2251.24,1140.24l2.88,49s-32.14,1.25-42.61-8.27-17.12-40.44-9.18-45.44S2251.24,1140.24,2251.24,1140.24Z" transform="translate(-442.81 -312.39)"/><path class="cls-11" d="M2190.42,1112.3s4.92,18.94,8.41,21.09c0,0-20.27,16.89-31.5,2.14l-2.71-36.18Z" transform="translate(-442.81 -312.39)"/><path class="cls-9" d="M2201.69,1098.34s.47,23.49-13.88,32.54c-12.94,8.16-30.39.3-35.1-15.2s1.74-16.4-2-30.26,8.37-35.8,29.9-27.93S2201.69,1098.34,2201.69,1098.34Z" transform="translate(-442.81 -312.39)"/><path class="cls-1" d="M2217.65,1110.09s38.08-51.35-13.56-70.38c-3.75-1.39-9.47-9.38-18.06-11.89s-27.56-3.88-31.37,10.67c0,0-9.87-.47-13.68,14.07s-14.09,12-14.09,12,10.61,31.68,41.78,7.64c0,0,4.28,7.87,12,5.44s4.86-5,13.08,3.65,3.22,30,.77,37.78,4.29,20.69,20.57,12C2222.67,1127,2217.65,1110.09,2217.65,1110.09Z" transform="translate(-442.81 -312.39)"/><path class="cls-9" d="M2193.72,1088.41s1.94-9,6.87-6,4.28,19.84-1,19.49S2193.72,1088.41,2193.72,1088.41Z" transform="translate(-442.81 -312.39)"/><path class="cls-11" d="M2194.51,1094.41s.37-7.27,3.78-5.17,2.27,11.81-.6,11.09S2194.51,1094.41,2194.51,1094.41Z" transform="translate(-442.81 -312.39)"/><path class="cls-1" d="M2167.21,1103.22a16,16,0,0,1,5.66,3.78c-6.48-2.79-7.11-5.16-10.11,1C2163.09,1105.17,2164.89,1102.35,2167.21,1103.22Z" transform="translate(-442.81 -312.39)"/><path class="cls-1" d="M2184.52,1087.34c1.34-1.6-5-5.21-10.6-3.79-1,.23-.6,1.81.33,1.56a10,10,0,0,1,9.25,2.27A.68.68,0,0,0,2184.52,1087.34Z" transform="translate(-442.81 -312.39)"/><path class="cls-1" d="M2153.34,1090.09c2.71-5.56,6.43-3.09,6.5-4.89s-5.26-1-7.78,4.13a.85.85,0,0,0,.3,1.09A.7.7,0,0,0,2153.34,1090.09Z" transform="translate(-442.81 -312.39)"/><path class="cls-1" d="M2178.57,1094.21a9.78,9.78,0,0,0-3.72.43,3.78,3.78,0,0,1,4.14-4.26,4,4,0,0,1,3.76,4.1,3.43,3.43,0,0,1-.14.85A9.62,9.62,0,0,0,2178.57,1094.21Z" transform="translate(-442.81 -312.39)"/><path class="cls-1" d="M2156.43,1096.12a10.2,10.2,0,0,0-3.52,1.37,3.45,3.45,0,0,1-.17-.65,4.08,4.08,0,0,1,3.31-4.55,3.77,3.77,0,0,1,4.52,3,3.62,3.62,0,0,1,0,.87A9.6,9.6,0,0,0,2156.43,1096.12Z" transform="translate(-442.81 -312.39)"/><path class="cls-1" d="M2164.62,1119.9c0,3.54,2,6.41,4.37,6.41s4.37-2.87,4.37-6.41-2-6.4-4.37-6.4S2164.62,1116.37,2164.62,1119.9Z" transform="translate(-442.81 -312.39)"/><path class="cls-31" d="M2227.73,572.15c23.86-.36,55.22,13.05,51.88,41.21-.4,3.34-1.65,7-4.7,8.44-7.55,3.55-19.7-9.41-25.11-13.5-7.5-5.66-15.78-11.49-25.59-11.49-6.83,0-19.11-3.4-18.23-12.35.38-3.87,3.13-7.22,6.51-9.15a27,27,0,0,1,11.19-3C2225,572.23,2226.35,572.17,2227.73,572.15Z" transform="translate(-442.81 -312.39)"/><path class="cls-5" d="M580,1459.86c6.6,4.53,16.36.21,17.66.21,7.13,0,19.76,9.16,19.76,9.16l-39.1,4.07-33.06-49.79c-5.28-8.22-.55-16,6.94-22.3C552.24,1401.21,574.53,1456.08,580,1459.86Z" transform="translate(-442.81 -312.39)"/></svg>